# xmcd
#
# Track frame offsets: 
#        150
#        42526
#        76934
#        147955
#        193335
#
# Disc length: 3611 seconds
#
# Revision: 1
# Processed by: cddbd v1.5.2PL0 Copyright (c) Steve Scherf et al.
# Submitted via: ExactAudioCopy v0.99pb4
#
DISCID=440e1905
DTITLE=Dickey Betts and Great Southern - Live at the Rock and Roll Hal
DTITLE=l of Fame
DYEAR=2005
DGENRE=Southern Rock
TTITLE0=Southbound
TTITLE1=Blue Sky
TTITLE2=In Memory of Elizabeth Reed
TTITLE3=Donna Marie
TTITLE4=Jessica
EXTD=
EXTT0=
EXTT1=
EXTT2=
EXTT3=
EXTT4=
PLAYORDER=
